<?xml version="1.0" encoding="utf-8"?>
<!-- Generator: Adobe Illustrator 27.1.1, SVG Export Plug-In . SVG Version: 6.00 Build 0)  -->
<svg version="1.1" id="Good_luck" xmlns="http://www.w3.org/2000/svg" xmlns:xlink="http://www.w3.org/1999/xlink" x="0px" y="0px"
	 viewBox="0 0 1978.9 1979.6" style="enable-background:new 0 0 1978.9 1979.6;" xml:space="preserve">
<style type="text/css">
	.st0{fill:#FFFFFF;}
	.st1{opacity:0.8;fill:#FFFFFF;}
	.st2{opacity:0.6;fill:#FFFFFF;}
	.st3{opacity:0.45;fill:#FFFFFF;}
	.st4{opacity:0.3;fill:#FFFFFF;}
	.st5{opacity:0.2;fill:#FFFFFF;}
	.st6{opacity:0.15;fill:#FFFFFF;}
	.st7{opacity:8.000000e-02;fill:#FFFFFF;}
	.st8{enable-background:new    ;}
	.st9{opacity:0.55;}
	.st10{opacity:0.35;}
	.st11{opacity:0.15;}
	.st12{opacity:0.75;}
	.st13{opacity:0.45;}
	.st14{opacity:0.35;fill:#FFFFFF;}
	.st15{fill:#A0A0A0;}
	.st16{opacity:0.3;}
	.st17{opacity:0;}
	.st18{opacity:0.7;}
	.st19{opacity:5.000000e-02;}
	.st20{opacity:0.5;}
	.st21{opacity:0.9;}
	.st22{opacity:0.2;}
	.st23{opacity:0.4;}
	.st24{opacity:0.8;}
	.st25{opacity:0.6;}
	.st26{opacity:0.65;fill:#FFFFFF;}
	.st27{opacity:5.000000e-02;fill:#FFFFFF;}
	.st28{opacity:0.25;fill:#FFFFFF;}
	.st29{opacity:8.000000e-02;}
	.st30{opacity:0.65;}
	.st31{clip-path:url(#SVGID_00000056399969300399058590000008734218648711060896_);}
	.st32{opacity:0.1;}
	.st33{opacity:0.7;fill:#FFFFFF;}
	.st34{opacity:0.4;fill:#FFFFFF;}
	.st35{opacity:0.1;fill:#FFFFFF;}
	.st36{opacity:4.761900e-02;}
	.st37{opacity:9.523800e-02;}
	.st38{opacity:0.1429;}
	.st39{opacity:0.1905;}
	.st40{opacity:0.2381;}
	.st41{opacity:0.2857;}
	.st42{opacity:0.3333;}
	.st43{opacity:0.381;}
	.st44{opacity:0.4286;}
	.st45{opacity:0.4762;}
	.st46{opacity:0.5238;}
	.st47{opacity:0.5714;}
	.st48{opacity:0.619;}
	.st49{opacity:0.6667;}
	.st50{opacity:0.7143;}
	.st51{opacity:0.7619;}
	.st52{opacity:0.8095;}
	.st53{opacity:0.8571;}
	.st54{opacity:0.9048;}
	.st55{opacity:0.9524;}
	.st56{clip-path:url(#SVGID_00000168812671682982322980000005274533092096937366_);}
	.st57{opacity:0.73;}
	.st58{fill:url(#SVGID_00000180361427975366116660000015487031058223259812_);}
	.st59{fill:url(#SVGID_00000093152885213471914380000002679966939887622808_);}
	.st60{fill:url(#SVGID_00000074408157427805188710000014010963191228560534_);}
	.st61{fill:url(#SVGID_00000066492625886730757880000008730524416865047214_);}
	.st62{fill:url(#SVGID_00000181767537026286632970000001338058601178425728_);}
	.st63{fill:url(#SVGID_00000088116567108596160470000003999796270230664078_);}
	.st64{filter:url(#Adobe_OpacityMaskFilter);}
	.st65{fill:url(#SVGID_00000041264490302794688780000012259252975108438931_);}
	.st66{opacity:0.2;mask:url(#SVGID_00000062176068396055258480000007132169601727407269_);}
	.st67{filter:url(#Adobe_OpacityMaskFilter_00000067220164634623274050000013155129676798768787_);}
	.st68{fill:url(#SVGID_00000152248568404017196780000013487872949912588416_);}
	.st69{opacity:0.2;mask:url(#SVGID_00000155133355649093012760000014592480008219646893_);}
	.st70{filter:url(#Adobe_OpacityMaskFilter_00000009576558233212947900000016328489348471113108_);}
	.st71{fill:url(#SVGID_00000127760260588817483430000010849416903906511534_);}
	.st72{opacity:0.2;mask:url(#SVGID_00000141452715405970358930000012572322778304809871_);}
	.st73{filter:url(#Adobe_OpacityMaskFilter_00000085245966037268071240000005935923936553750930_);}
	.st74{fill:url(#SVGID_00000042727693325192472970000001462122722567019394_);}
	.st75{opacity:0.2;mask:url(#SVGID_00000183934303854835260520000016653291931081203874_);}
	.st76{filter:url(#Adobe_OpacityMaskFilter_00000123420799323290436870000016448334846409959047_);}
	.st77{fill:url(#SVGID_00000026148785234002793530000005215654697173126072_);}
	.st78{opacity:0.2;mask:url(#SVGID_00000097488866936197910130000010214602716622117819_);}
	.st79{fill:url(#SVGID_00000149376824696625386530000013981347491813753473_);}
	.st80{filter:url(#Adobe_OpacityMaskFilter_00000044153444523555592120000015304608589655551645_);}
	.st81{fill:url(#SVGID_00000044875467622662958270000017227266992119980930_);}
	.st82{opacity:0.2;mask:url(#SVGID_00000033350052166899735380000010975966834644087682_);}
	.st83{fill:url(#SVGID_00000016036951262371599930000003568114621054657696_);}
	.st84{clip-path:url(#SVGID_00000061450970577371541970000018010728043681997501_);}
	.st85{clip-path:url(#SVGID_00000127011575336926733200000012069615248464068017_);}
	.st86{clip-path:url(#SVGID_00000127011575336926733200000012069615248464068017_);fill:#FFFFFF;}
	.st87{clip-path:url(#SVGID_00000105400243240430106870000005981924503051798412_);}
	.st88{clip-path:url(#SVGID_00000128469290803114243340000011256044929260451775_);}
	.st89{clip-path:url(#SVGID_00000128469290803114243340000011256044929260451775_);fill:#FFFFFF;}
	.st90{clip-path:url(#SVGID_00000141433183619625655750000014861313676266164879_);}
	.st91{clip-path:url(#SVGID_00000068641253402871240490000004405996122771642026_);}
	.st92{clip-path:url(#SVGID_00000068641253402871240490000004405996122771642026_);fill:#FFFFFF;}
	.st93{clip-path:url(#SVGID_00000034776953529714687790000009573766468619766700_);}
	.st94{clip-path:url(#SVGID_00000021090691105713377190000010711636943988332724_);}
	.st95{clip-path:url(#SVGID_00000021090691105713377190000010711636943988332724_);fill:#FFFFFF;}
	.st96{clip-path:url(#SVGID_00000045584941898592861360000011087870235993345431_);}
	.st97{clip-path:url(#SVGID_00000093167665039956755930000017621225243940983736_);}
	.st98{clip-path:url(#SVGID_00000093167665039956755930000017621225243940983736_);fill:#FFFFFF;}
	.st99{clip-path:url(#SVGID_00000044140659132846026700000005950397950471027586_);}
	.st100{clip-path:url(#SVGID_00000082335653175447103630000017213157936943595649_);}
	.st101{clip-path:url(#SVGID_00000082335653175447103630000017213157936943595649_);fill:#FFFFFF;}
	.st102{clip-path:url(#SVGID_00000165934126077948695930000002415736428523636414_);}
	.st103{clip-path:url(#SVGID_00000055669940177858480780000003224088270606724520_);}
	.st104{clip-path:url(#SVGID_00000055669940177858480780000003224088270606724520_);fill:#FFFFFF;}
	.st105{clip-path:url(#SVGID_00000155147367945658335310000005920306904640236439_);}
	.st106{clip-path:url(#SVGID_00000005227783743736790790000014526967921255059384_);}
	.st107{clip-path:url(#SVGID_00000005227783743736790790000014526967921255059384_);fill:#FFFFFF;}
	.st108{clip-path:url(#SVGID_00000160178804643108219780000005498086831821914755_);}
	.st109{clip-path:url(#SVGID_00000096054381018781857380000001223248612154075838_);}
	.st110{clip-path:url(#SVGID_00000096054381018781857380000001223248612154075838_);fill:#FFFFFF;}
	.st111{clip-path:url(#SVGID_00000072266373641313565140000009563698791173744575_);}
	.st112{clip-path:url(#SVGID_00000020388217102103812680000009050142462243130273_);}
	.st113{clip-path:url(#SVGID_00000020388217102103812680000009050142462243130273_);fill:#FFFFFF;}
	.st114{clip-path:url(#SVGID_00000008121095905111721180000014117968321883696519_);}
	.st115{clip-path:url(#SVGID_00000086690378844494525250000007970660257857277351_);}
	.st116{clip-path:url(#SVGID_00000086690378844494525250000007970660257857277351_);fill:#FFFFFF;}
	.st117{clip-path:url(#SVGID_00000149374601562168044350000007662110561567487129_);}
	.st118{clip-path:url(#SVGID_00000041272275926572435090000005329021895457143726_);}
	.st119{clip-path:url(#SVGID_00000041272275926572435090000005329021895457143726_);fill:#FFFFFF;}
	.st120{clip-path:url(#SVGID_00000107585947299807534600000007608706276225641658_);}
	.st121{clip-path:url(#SVGID_00000057870094500689900510000006760268496139688593_);}
	.st122{clip-path:url(#SVGID_00000057870094500689900510000006760268496139688593_);fill:#FFFFFF;}
	.st123{clip-path:url(#SVGID_00000084501431647945171440000005590040431257203618_);}
	.st124{clip-path:url(#SVGID_00000091726214030883689860000003557336805693537173_);}
	.st125{clip-path:url(#SVGID_00000091726214030883689860000003557336805693537173_);fill:#FFFFFF;}
	.st126{clip-path:url(#SVGID_00000057149538630704988890000000502325175195289997_);}
	.st127{clip-path:url(#SVGID_00000000221050940830394000000003890387809263600785_);}
	.st128{clip-path:url(#SVGID_00000000221050940830394000000003890387809263600785_);fill:#FFFFFF;}
	.st129{clip-path:url(#SVGID_00000028291010077490955100000009921256809325554591_);}
	.st130{clip-path:url(#SVGID_00000116956683529620567510000001688851534076641463_);}
	.st131{clip-path:url(#SVGID_00000116956683529620567510000001688851534076641463_);fill:#FFFFFF;}
	.st132{clip-path:url(#SVGID_00000175287467864832755780000001250985855204822436_);}
	.st133{clip-path:url(#SVGID_00000087413314808987730600000002460993408159781295_);}
	.st134{clip-path:url(#SVGID_00000087413314808987730600000002460993408159781295_);fill:#FFFFFF;}
	.st135{clip-path:url(#SVGID_00000017506160581916939840000000732520039382850699_);}
	.st136{clip-path:url(#SVGID_00000065055603428638890660000012404591388762766506_);}
	.st137{clip-path:url(#SVGID_00000065055603428638890660000012404591388762766506_);fill:#FFFFFF;}
	.st138{clip-path:url(#SVGID_00000037661115126901234060000015579512357234665142_);}
	.st139{clip-path:url(#SVGID_00000082364787640298351270000002494847040417956252_);}
	.st140{clip-path:url(#SVGID_00000082364787640298351270000002494847040417956252_);fill:#FFFFFF;}
	.st141{opacity:0.29;}
	.st142{opacity:0.49;}
	.st143{opacity:0.54;}
	.st144{clip-path:url(#SVGID_00000121976469314323638640000013730321074652300963_);}
	.st145{fill:#F9F9F9;}
	.st146{opacity:0.25;}
	.st147{fill:#F8F8F8;}
</style>
<g>
	<g>
		<path class="st0" d="M1978.9,1979.6H0.3V1h1978.6V1979.6z M2.1,1977.9h1975V2.8H2.1V1977.9z"/>
	</g>
	<g>
		<polygon class="st0" points="782.7,784.7 0.5,2.5 1.8,1.3 784,783.4 		"/>
	</g>
	<path class="st0" d="M1196.6,783.3L1978,1.9L1196.6,783.3z"/>
	<g>
		
			<rect x="-160.3" y="1588" transform="matrix(0.7078 -0.7064 0.7064 0.7078 -1008.176 740.552)" class="st0" width="1102.7" height="1.8"/>
	</g>
	<path class="st0" d="M1196.6,1197.3l781.4,781.4L1196.6,1197.3z"/>
	<g>
		<g>
			<g>
				<rect x="806" y="783.3" class="st0" width="1.8" height="414"/>
			</g>
			<g>
				<rect x="830.4" y="783.3" class="st0" width="1.8" height="414"/>
			</g>
			<g>
				<rect x="854.7" y="783.3" class="st0" width="1.8" height="414"/>
			</g>
			<g>
				<rect x="879.1" y="783.3" class="st0" width="1.8" height="414"/>
			</g>
			<g>
				<rect x="903.4" y="783.3" class="st0" width="1.8" height="414"/>
			</g>
			<g>
				<rect x="927.7" y="783.3" class="st0" width="1.8" height="414"/>
			</g>
			<g>
				<g>
					<path class="st0" d="M1197.5,1198.2H781.7V782.4h415.8V1198.2z M783.5,1196.4h412.2V784.2H783.5V1196.4z"/>
				</g>
				<g>
					<rect x="782.5" y="806.9" class="st0" width="414" height="1.8"/>
				</g>
				<g>
					<rect x="782.5" y="831.2" class="st0" width="414" height="1.8"/>
				</g>
				<g>
					<rect x="782.5" y="855.6" class="st0" width="414" height="1.8"/>
				</g>
				<g>
					<rect x="782.5" y="879.9" class="st0" width="414" height="1.8"/>
				</g>
				<g>
					<rect x="782.5" y="904.3" class="st0" width="414" height="1.8"/>
				</g>
				<g>
					<rect x="782.5" y="928.6" class="st0" width="414" height="1.8"/>
				</g>
				<g>
					<rect x="782.5" y="952.9" class="st0" width="414" height="1.8"/>
				</g>
				<g>
					<rect x="782.5" y="977.3" class="st0" width="414" height="1.8"/>
				</g>
				<g>
					<rect x="782.5" y="1001.6" class="st0" width="414" height="1.8"/>
				</g>
				<g>
					<rect x="782.5" y="1026" class="st0" width="414" height="1.8"/>
				</g>
				<g>
					<rect x="782.5" y="1050.3" class="st0" width="414" height="1.8"/>
				</g>
				<g>
					<rect x="782.5" y="1074.6" class="st0" width="414" height="1.8"/>
				</g>
				<g>
					<rect x="782.5" y="1099" class="st0" width="414" height="1.8"/>
				</g>
				<g>
					<rect x="782.5" y="1123.3" class="st0" width="414" height="1.8"/>
				</g>
				<g>
					<rect x="782.5" y="1147.6" class="st0" width="414" height="1.8"/>
				</g>
				<g>
					<rect x="782.5" y="1172" class="st0" width="414" height="1.8"/>
				</g>
				<g>
					<rect x="952.1" y="783.3" class="st0" width="1.8" height="414"/>
				</g>
				<g>
					<rect x="976.4" y="783.3" class="st0" width="1.8" height="414"/>
				</g>
				<g>
					<rect x="1000.8" y="783.3" class="st0" width="1.8" height="414"/>
				</g>
				<g>
					<rect x="1025.1" y="783.3" class="st0" width="1.8" height="414"/>
				</g>
				<g>
					<rect x="1049.4" y="783.3" class="st0" width="1.8" height="414"/>
				</g>
				<g>
					<rect x="1073.8" y="783.3" class="st0" width="1.8" height="414"/>
				</g>
			</g>
			<g>
				<rect x="1098.1" y="783.3" class="st0" width="1.8" height="414"/>
			</g>
			<g>
				<rect x="1122.4" y="783.3" class="st0" width="1.8" height="414"/>
			</g>
			<g>
				<rect x="1146.8" y="783.3" class="st0" width="1.8" height="414"/>
			</g>
			<g>
				<rect x="1171.1" y="783.3" class="st0" width="1.8" height="414"/>
			</g>
		</g>
		<g>
			<g>
				<rect x="180.3" y="182.1" class="st0" width="1.8" height="1616"/>
			</g>
			<g>
				<rect x="304.1" y="306.2" class="st0" width="1.8" height="1367.9"/>
			</g>
			<g>
				<polygon class="st0" points="395,1583.2 394.8,397.3 396.6,397.3 396.8,1583.2 				"/>
			</g>
			<g>
				<rect x="464.4" y="467" class="st0" width="1.8" height="1046.6"/>
			</g>
			<g>
				<rect x="519.3" y="522" class="st0" width="1.8" height="936.6"/>
			</g>
			<g>
				<rect x="563.7" y="566.5" class="st0" width="1.8" height="847.5"/>
			</g>
			<g>
				<g>
					<path class="st0" d="M2.1,1979.2v-2.2L1.4,0.8l1.5,1.5L781.8,783v414.7l-0.3,0.3L2.1,1979.2z M3.2,5.2l0.7,1969.6L780,1197
						V783.7L3.2,5.2z"/>
				</g>
				<g>
					<polygon class="st0" points="780.3,808.4 0.6,119.4 1.8,118.1 781.5,807.1 					"/>
				</g>
				<g>
					
						<rect x="390.2" y="42.6" transform="matrix(0.608 -0.7939 0.7939 0.608 -270.3184 519.6159)" class="st0" width="1.8" height="982"/>
				</g>
				<g>
					<polygon class="st0" points="780.4,857.2 0.8,352 1.8,350.5 781.4,855.7 					"/>
				</g>
				<g>
					<polygon class="st0" points="780.4,881.6 0.9,468.3 1.8,466.7 781.3,880 					"/>
				</g>
				<g>
					<polygon class="st0" points="780.5,906 1,584.6 1.7,582.9 781.2,904.3 					"/>
				</g>
				<g>
					<polygon class="st0" points="780.6,930.4 1.2,700.8 1.7,699.1 781.1,928.6 					"/>
				</g>
				<g>
					<polygon class="st0" points="780.7,954.7 1.3,817 1.6,815.3 781,952.9 					"/>
				</g>
				<g>
					<polygon class="st0" points="780.8,979.1 1.4,933.2 1.5,931.4 780.9,977.3 					"/>
				</g>
				<g>
					
						<rect x="0.9" y="1024.6" transform="matrix(0.998 -6.388541e-02 6.388541e-02 0.998 -64.7165 27.0871)" class="st0" width="780.7" height="1.8"/>
				</g>
				<g>
					<polygon class="st0" points="1.7,1165.6 1.4,1163.8 780.7,1026 781,1027.8 					"/>
				</g>
				<g>
					<polygon class="st0" points="1.9,1281.7 1.4,1280 780.6,1050.4 781.1,1052.1 					"/>
				</g>
				<g>
					
						<rect x="-30.2" y="1235.4" transform="matrix(0.9262 -0.377 0.377 0.9262 -437.2453 238.7607)" class="st0" width="842.9" height="1.8"/>
				</g>
				<g>
					<polygon class="st0" points="2.1,1513.9 1.3,1512.3 780.4,1099.1 781.3,1100.7 					"/>
				</g>
				<g>
					<polygon class="st0" points="2.2,1630 1.2,1628.5 780.4,1123.5 781.4,1125 					"/>
				</g>
				<g>
					
						<rect x="-99.4" y="1446" transform="matrix(0.7925 -0.6098 0.6098 0.7925 -801.2159 538.8542)" class="st0" width="981.4" height="1.8"/>
				</g>
				<g>
					<polygon class="st0" points="2.4,1862.1 1.2,1860.7 780.3,1172.2 781.5,1173.6 					"/>
				</g>
				<g>
					<polygon class="st0" points="600.5,1377.3 600.4,603.3 602.2,603.3 602.3,1377.3 					"/>
				</g>
				<g>
					<rect x="631.3" y="634.3" class="st0" width="1.8" height="712.1"/>
				</g>
				<g>
					<polygon class="st0" points="659.4,1320 657.6,1320 657.6,660.6 659.4,660.6 					"/>
				</g>
				<g>
					<polygon class="st0" points="682.1,1297.3 680.3,1297.3 680.2,683.3 682,683.3 					"/>
				</g>
				<g>
					<polygon class="st0" points="701.8,1277.5 700,1277.5 700,703.1 701.8,703.1 					"/>
				</g>
				<g>
					<rect x="717.4" y="720.5" class="st0" width="1.8" height="539.6"/>
				</g>
			</g>
			<g>
				<rect x="732.7" y="735.9" class="st0" width="1.8" height="508.8"/>
			</g>
			<g>
				<rect x="746.4" y="749.7" class="st0" width="1.8" height="481.3"/>
			</g>
			<g>
				<rect x="758.7" y="762" class="st0" width="1.8" height="456.6"/>
			</g>
			<g>
				<rect x="769.8" y="773.1" class="st0" width="1.8" height="434.4"/>
			</g>
		</g>
		<g>
			<g>
				<rect x="181.4" y="181.9" class="st0" width="1616" height="1.8"/>
			</g>
			<g>
				<rect x="305.3" y="305.6" class="st0" width="1367.9" height="1.8"/>
			</g>
			<g>
				<rect x="396.3" y="396.5" class="st0" width="1185.9" height="1.8"/>
			</g>
			<g>
				<rect x="465.9" y="466" class="st0" width="1046.6" height="1.8"/>
			</g>
			<g>
				<rect x="520.9" y="520.8" class="st0" width="936.6" height="1.8"/>
			</g>
			<g>
				<polygon class="st0" points="565.4,567.1 565.4,565.3 1412.9,565.2 1412.9,567 				"/>
			</g>
			<g>
				<g>
					<path class="st0" d="M1196.5,783.4H781.8l-0.3-0.3L0.3,3.6h2.2L1978.6,3l-1.5,1.5L1196.5,783.4z M782.5,781.6h413.3L1974.3,4.7
						L4.7,5.4L782.5,781.6z"/>
				</g>
				<g>
					<polygon class="st0" points="1172.4,783 1171,781.8 1860,2.2 1861.4,3.4 					"/>
				</g>
				<g>
					
						<rect x="954.9" y="391.7" transform="matrix(0.6076 -0.7942 0.7942 0.6076 255.5147 1302.4388)" class="st0" width="982" height="1.8"/>
				</g>
				<g>
					<polygon class="st0" points="1123.8,782.9 1122.3,781.9 1627.5,2.4 1629,3.3 					"/>
				</g>
				<g>
					<polygon class="st0" points="1099.5,782.8 1097.9,782 1511.2,2.5 1512.8,3.3 					"/>
				</g>
				<g>
					<polygon class="st0" points="1075.2,782.8 1073.5,782.1 1394.9,2.6 1396.6,3.3 					"/>
				</g>
				<g>
					<polygon class="st0" points="1050.9,782.7 1049.1,782.2 1278.7,2.7 1280.4,3.2 					"/>
				</g>
				<g>
					<polygon class="st0" points="1026.5,782.6 1024.8,782.3 1162.5,2.9 1164.2,3.2 					"/>
				</g>
				<g>
					<polygon class="st0" points="1002.2,782.5 1000.4,782.4 1046.3,3 1048,3.1 					"/>
				</g>
				<g>
					
						<rect x="953.1" y="2.4" transform="matrix(0.9983 -5.890723e-02 5.890723e-02 0.9983 -21.4796 56.8775)" class="st0" width="1.8" height="780.7"/>
				</g>
				<g>
					<polygon class="st0" points="951.7,782.6 813.9,3.3 815.7,3 953.5,782.3 					"/>
				</g>
				<g>
					<polygon class="st0" points="927.4,782.7 697.8,3.4 699.5,2.9 929.1,782.2 					"/>
				</g>
				<g>
					<polygon class="st0" points="903.1,782.8 581.7,3.6 583.4,2.9 904.8,782.1 					"/>
				</g>
				<g>
					<polygon class="st0" points="878.8,782.8 465.6,3.7 467.2,2.8 880.4,782 					"/>
				</g>
				<g>
					<polygon class="st0" points="854.5,782.9 349.5,3.8 351,2.8 856,781.9 					"/>
				</g>
				<g>
					<polygon class="st0" points="830.2,783 233.4,3.9 234.9,2.8 831.6,781.9 					"/>
				</g>
				<g>
					<polygon class="st0" points="805.9,783 117.4,4 118.7,2.8 807.2,781.8 					"/>
				</g>
				<g>
					<polygon class="st0" points="602.2,603.8 602.2,602 1376.1,602 1376.1,603.8 					"/>
				</g>
				<g>
					<rect x="633.1" y="632.9" class="st0" width="712.1" height="1.8"/>
				</g>
				<g>
					<rect x="659.5" y="659.2" class="st0" width="659.4" height="1.8"/>
				</g>
				<g>
					<rect x="682.2" y="681.8" class="st0" width="614" height="1.8"/>
				</g>
				<g>
					<rect x="702" y="701.6" class="st0" width="574.4" height="1.8"/>
				</g>
				<g>
					<rect x="719.4" y="718.9" class="st0" width="539.6" height="1.8"/>
				</g>
			</g>
			<g>
				<rect x="734.8" y="734.3" class="st0" width="508.8" height="1.8"/>
			</g>
			<g>
				<rect x="748.5" y="748" class="st0" width="481.3" height="1.8"/>
			</g>
			<g>
				<rect x="760.8" y="760.3" class="st0" width="456.6" height="1.8"/>
			</g>
			<g>
				<rect x="772" y="771.4" class="st0" width="434.4" height="1.8"/>
			</g>
		</g>
		<g>
			<g>
				<polygon class="st0" points="1796.5,1797 1796.1,181 1797.9,181 1798.3,1797 				"/>
			</g>
			<g>
				<rect x="1672.5" y="305" class="st0" width="1.8" height="1367.9"/>
			</g>
			<g>
				<polygon class="st0" points="1581.8,1581.9 1581.6,396 1583.4,396 1583.6,1581.9 				"/>
			</g>
			<g>
				<polygon class="st0" points="1512.3,1512.2 1512.1,465.6 1513.9,465.6 1514.1,1512.2 				"/>
			</g>
			<g>
				<polygon class="st0" points="1457.4,1457.2 1457.3,520.6 1459.1,520.6 1459.1,1457.2 				"/>
			</g>
			<g>
				<polygon class="st0" points="1412.9,1412.6 1412.8,565.1 1414.6,565.1 1414.7,1412.6 				"/>
			</g>
			<g>
				<g>
					<path class="st0" d="M1977,1978.3l-1.5-1.5l-778.9-780.6V781.4l0.3-0.3L1976.3,0v2.2L1977,1978.3z M1198.4,1195.5l776.8,778.5
						L1974.5,4.3l-776.2,777.9V1195.5z"/>
				</g>
				<g>
					<polygon class="st0" points="1976.6,1861.1 1196.9,1172.1 1198.1,1170.7 1977.8,1859.7 					"/>
				</g>
				<g>
					<polygon class="st0" points="1976.6,1744.8 1197,1147.8 1198.1,1146.3 1977.7,1743.4 					"/>
				</g>
				<g>
					
						<rect x="1586.4" y="910.8" transform="matrix(0.5438 -0.8392 0.8392 0.5438 -430.0593 1959.4362)" class="st0" width="1.8" height="928.9"/>
				</g>
				<g>
					<polygon class="st0" points="1976.6,1512.4 1197.1,1099.2 1198,1097.6 1977.5,1510.9 					"/>
				</g>
				<g>
					<polygon class="st0" points="1976.7,1396.3 1197.2,1074.9 1197.9,1073.2 1977.4,1394.6 					"/>
				</g>
				<g>
					
						<rect x="1586.3" y="758.2" transform="matrix(0.2825 -0.9593 0.9593 0.2825 21.8244 2358.0596)" class="st0" width="1.8" height="812.5"/>
				</g>
				<g>
					<polygon class="st0" points="1976.8,1163.9 1197.4,1026.2 1197.7,1024.4 1977.1,1162.1 					"/>
				</g>
				<g>
					<polygon class="st0" points="1976.8,1047.7 1197.5,1001.9 1197.6,1000.1 1976.9,1045.9 					"/>
				</g>
				<g>
					<polygon class="st0" points="1197.6,977.5 1197.5,975.7 1976.8,929.7 1976.9,931.6 					"/>
				</g>
				<g>
					<polygon class="st0" points="1197.7,953.2 1197.4,951.4 1976.6,813.6 1977,815.4 					"/>
				</g>
				<g>
					<polygon class="st0" points="1197.8,928.8 1197.3,927.1 1976.5,697.5 1977,699.2 					"/>
				</g>
				<g>
					<polygon class="st0" points="1197.9,904.4 1197.2,902.8 1976.4,581.4 1977.1,583 					"/>
				</g>
				<g>
					<polygon class="st0" points="1198,880 1197.1,878.5 1976.3,465.3 1977.1,466.8 					"/>
				</g>
				<g>
					
						<rect x="1122.9" y="601.5" transform="matrix(0.8388 -0.5445 0.5445 0.8388 -72.1339 961.2457)" class="st0" width="928.5" height="1.8"/>
				</g>
				<g>
					<polygon class="st0" points="1198.1,831.3 1197,829.9 1976.1,233.1 1977.2,234.5 					"/>
				</g>
				<g>
					
						<rect x="1067.2" y="461.1" transform="matrix(0.749 -0.6626 0.6626 0.749 92.296 1167.5853)" class="st0" width="1039.7" height="1.8"/>
				</g>
				<g>
					<rect x="1376.2" y="601.9" class="st0" width="1.8" height="773.9"/>
				</g>
				<g>
					<polygon class="st0" points="1347.1,1344.9 1345.3,1344.9 1345.3,632.8 1347.1,632.8 					"/>
				</g>
				<g>
					<polygon class="st0" points="1320.8,1318.5 1319,1318.5 1319,659.1 1320.8,659.1 					"/>
				</g>
				<g>
					<polygon class="st0" points="1296.4,1295.8 1296.3,681.9 1298.1,681.9 1298.1,1295.8 					"/>
				</g>
				<g>
					<rect x="1276.6" y="701.6" class="st0" width="1.8" height="574.4"/>
				</g>
				<g>
					<rect x="1259.3" y="719" class="st0" width="1.8" height="539.6"/>
				</g>
			</g>
			<g>
				<rect x="1243.9" y="734.4" class="st0" width="1.8" height="508.8"/>
			</g>
			<g>
				<rect x="1230.2" y="748.2" class="st0" width="1.8" height="481.3"/>
			</g>
			<g>
				<rect x="1217.9" y="760.5" class="st0" width="1.8" height="456.6"/>
			</g>
			<g>
				<rect x="1206.8" y="771.6" class="st0" width="1.8" height="434.4"/>
			</g>
		</g>
		<g>
			<g>
				<rect x="181.3" y="1797" class="st0" width="1616" height="1.8"/>
			</g>
			<g>
				<rect x="305.4" y="1673.2" class="st0" width="1367.9" height="1.8"/>
			</g>
			<g>
				<rect x="396.4" y="1582.4" class="st0" width="1185.9" height="1.8"/>
			</g>
			<g>
				<polygon class="st0" points="466.1,1514.8 466.1,1513 1512.7,1512.9 1512.7,1514.6 				"/>
			</g>
			<g>
				<polygon class="st0" points="521.1,1459.9 521.1,1458.1 1457.7,1458 1457.7,1459.8 				"/>
			</g>
			<g>
				<polygon class="st0" points="565.7,1415.4 565.7,1413.6 1413.2,1413.6 1413.2,1415.4 				"/>
			</g>
			<g>
				<g>
					<path class="st0" d="M0,1977.7l1.5-1.5l780.6-778.9h414.7l0.3,0.3l781.2,779.5h-2.2L0,1977.7z M782.9,1199.1L4.4,1975.9
						l1969.6-0.7l-777.8-776.2H782.9z"/>
				</g>
				<g>
					
						<rect x="-57.8" y="1587.2" transform="matrix(0.6626 -0.749 0.749 0.6626 -1033.3949 882.1194)" class="st0" width="1040.5" height="1.8"/>
				</g>
				<g>
					<polygon class="st0" points="234.9,1978.4 233.5,1977.3 830.5,1197.7 832,1198.8 					"/>
				</g>
				<g>
					<polygon class="st0" points="351.2,1978.3 349.7,1977.3 854.9,1197.8 856.4,1198.7 					"/>
				</g>
				<g>
					<polygon class="st0" points="467.4,1978.2 465.9,1977.4 879.2,1197.8 880.7,1198.7 					"/>
				</g>
				<g>
					<polygon class="st0" points="583.7,1978.1 582.1,1977.4 903.5,1197.9 905.1,1198.6 					"/>
				</g>
				<g>
					<polygon class="st0" points="700,1978 698.2,1977.4 927.8,1198 929.5,1198.5 					"/>
				</g>
				<g>
					<polygon class="st0" points="816.2,1977.8 814.4,1977.5 952.1,1198.1 953.9,1198.4 					"/>
				</g>
				<g>
					<polygon class="st0" points="932.4,1977.7 930.6,1977.6 976.4,1198.2 978.2,1198.3 					"/>
				</g>
				<g>
					
						<rect x="1023.8" y="1197.6" transform="matrix(0.9983 -5.891798e-02 5.891798e-02 0.9983 -91.7768 63.1302)" class="st0" width="1.8" height="780.7"/>
				</g>
				<g>
					<polygon class="st0" points="1162.9,1977.7 1025.1,1198.4 1026.9,1198.1 1164.7,1977.4 					"/>
				</g>
				<g>
					<polygon class="st0" points="1279.1,1977.8 1049.5,1198.5 1051.2,1198 1280.8,1977.2 					"/>
				</g>
				<g>
					<polygon class="st0" points="1395.3,1977.8 1073.9,1198.6 1075.5,1197.9 1396.9,1977.1 					"/>
				</g>
				<g>
					<polygon class="st0" points="1511.5,1977.8 1098.2,1198.7 1099.8,1197.8 1513,1977 					"/>
				</g>
				<g>
					
						<rect x="1375" y="1123.6" transform="matrix(0.8392 -0.5439 0.5439 0.8392 -642.2953 1003.7125)" class="st0" width="1.8" height="928.5"/>
				</g>
				<g>
					<polygon class="st0" points="1743.8,1977.9 1147,1198.8 1148.4,1197.7 1745.2,1976.8 					"/>
				</g>
				<g>
					<polygon class="st0" points="1859.9,1977.9 1171.4,1198.9 1172.8,1197.7 1861.2,1976.7 					"/>
				</g>
				<g>
					<rect x="602.5" y="1376.9" class="st0" width="773.9" height="1.8"/>
				</g>
				<g>
					<rect x="633.4" y="1346" class="st0" width="712.1" height="1.8"/>
				</g>
				<g>
					<rect x="659.8" y="1319.7" class="st0" width="659.4" height="1.8"/>
				</g>
				<g>
					<rect x="682.5" y="1297.1" class="st0" width="614" height="1.8"/>
				</g>
				<g>
					<rect x="702.3" y="1277.3" class="st0" width="574.4" height="1.8"/>
				</g>
				<g>
					<rect x="719.7" y="1260" class="st0" width="539.6" height="1.8"/>
				</g>
			</g>
			<g>
				<rect x="735.1" y="1244.6" class="st0" width="508.8" height="1.8"/>
			</g>
			<g>
				<rect x="748.8" y="1230.9" class="st0" width="481.3" height="1.8"/>
			</g>
			<g>
				<polygon class="st0" points="761.2,1220.4 761.2,1218.6 1217.8,1218.6 1217.8,1220.4 				"/>
			</g>
			<g>
				<rect x="772.3" y="1207.5" class="st0" width="434.4" height="1.8"/>
			</g>
		</g>
	</g>
</g>
</svg>
