<?xml version="1.0" encoding="UTF-8"?>
<svg id="Good_luck" data-name="Good luck" xmlns="http://www.w3.org/2000/svg" viewBox="0 0 347.15 270.25">
  <defs>
    <style>
      .cls-1 {
        fill: #fff;
      }
    </style>
  </defs>
  <g>
    <g>
      <path d="m.87,264.93c0,2.46,1.99,4.45,4.45,4.45h336.5c2.46,0,4.45-1.99,4.45-4.45V20.73H.87v244.19Z"/>
      <path class="cls-1" d="m341.83,270.25H5.32c-2.93,0-5.32-2.39-5.32-5.32V19.86h347.15v245.07c0,2.93-2.39,5.32-5.32,5.32ZM1.75,21.61v243.32c0,1.97,1.6,3.58,3.58,3.58h336.5c1.97,0,3.58-1.6,3.58-3.58V21.61H1.75Z"/>
    </g>
    <g>
      <path d="m341.83.87H5.32C2.86.87.87,2.87.87,5.32v15.41h345.4V5.32c0-2.46-1.99-4.45-4.45-4.45Z"/>
      <path class="cls-1" d="m347.15,21.61H0V5.32C0,2.39,2.39,0,5.32,0h336.5c2.93,0,5.32,2.39,5.32,5.32v16.28ZM1.75,19.86h343.66V5.32c0-1.97-1.6-3.58-3.58-3.58H5.32c-1.97,0-3.58,1.6-3.58,3.58v14.54Z"/>
    </g>
  </g>
  <g>
    <g>
      <circle class="cls-1" cx="12.25" cy="10.59" r="3.84"/>
      <path class="cls-1" d="m12.25,15.3c-2.6,0-4.71-2.11-4.71-4.71s2.11-4.71,4.71-4.71,4.71,2.11,4.71,4.71-2.11,4.71-4.71,4.71Zm0-7.68c-1.64,0-2.97,1.33-2.97,2.97s1.33,2.97,2.97,2.97,2.97-1.33,2.97-2.97-1.33-2.97-2.97-2.97Z"/>
    </g>
    <g>
      <circle class="cls-1" cx="24.94" cy="10.59" r="3.84"/>
      <path class="cls-1" d="m24.94,15.3c-2.6,0-4.71-2.11-4.71-4.71s2.11-4.71,4.71-4.71,4.71,2.11,4.71,4.71-2.11,4.71-4.71,4.71Zm0-7.68c-1.64,0-2.97,1.33-2.97,2.97s1.33,2.97,2.97,2.97,2.97-1.33,2.97-2.97-1.33-2.97-2.97-2.97Z"/>
    </g>
    <g>
      <circle class="cls-1" cx="37.63" cy="10.59" r="3.84"/>
      <path class="cls-1" d="m37.63,15.3c-2.6,0-4.71-2.11-4.71-4.71s2.11-4.71,4.71-4.71,4.71,2.11,4.71,4.71-2.11,4.71-4.71,4.71Zm0-7.68c-1.64,0-2.97,1.33-2.97,2.97s1.33,2.97,2.97,2.97,2.97-1.33,2.97-2.97-1.33-2.97-2.97-2.97Z"/>
    </g>
  </g>
</svg>